G75*
G70*
%OFA0B0*%
%FSLAX24Y24*%
%IPPOS*%
%LPD*%
%AMOC8*
5,1,8,0,0,1.08239X$1,22.5*
%
%ADD10C,0.0340*%
%ADD11R,0.0740X0.0740*%
%ADD12C,0.0740*%
%ADD13C,0.0160*%
%ADD14C,0.0320*%
%ADD15C,0.0300*%
%ADD16C,0.0100*%
%ADD17C,0.0360*%
%ADD18C,0.0436*%
%ADD19C,0.0120*%
%ADD20C,0.0320*%
%ADD21C,0.0240*%
D10*
X009300Y004137D03*
X009550Y004387D03*
X009300Y004637D03*
X009800Y004637D03*
X009800Y004137D03*
D11*
X013650Y001487D03*
D12*
X012650Y001487D03*
X011650Y001487D03*
X010650Y001487D03*
X009650Y001487D03*
X008650Y001487D03*
X007650Y001487D03*
X006650Y001487D03*
D13*
X000650Y000967D02*
X000650Y007357D01*
X018650Y007357D01*
X018650Y000967D01*
X014120Y000967D01*
X014131Y000973D01*
X014164Y001006D01*
X014188Y001047D01*
X014200Y001093D01*
X014200Y001467D01*
X013670Y001467D01*
X013670Y001507D01*
X013630Y001507D01*
X013630Y002037D01*
X013256Y002037D01*
X013211Y002024D01*
X013169Y002001D01*
X013136Y001967D01*
X013112Y001926D01*
X013100Y001880D01*
X013100Y001785D01*
X013099Y001787D01*
X012950Y001936D01*
X012761Y002015D01*
X012706Y002170D01*
X013234Y002467D01*
X013235Y002467D01*
X013236Y002466D01*
X013375Y002409D01*
X013525Y002409D01*
X013664Y002466D01*
X013771Y002572D01*
X013828Y002711D01*
X013828Y002862D01*
X013771Y003001D01*
X013664Y003107D01*
X013525Y003165D01*
X013375Y003165D01*
X013236Y003107D01*
X013235Y003107D01*
X013194Y003107D01*
X013175Y003112D01*
X013131Y003107D01*
X013086Y003107D01*
X013068Y003099D01*
X013049Y003097D01*
X013010Y003075D01*
X012969Y003058D01*
X012955Y003044D01*
X012266Y002657D01*
X010322Y002657D01*
X010117Y002839D01*
X010071Y002951D01*
X009990Y003031D01*
X009990Y003187D01*
X011199Y004397D01*
X011268Y004397D01*
X011393Y004448D01*
X011488Y004544D01*
X011540Y004669D01*
X011540Y004804D01*
X011488Y004929D01*
X011393Y005025D01*
X011268Y005077D01*
X011132Y005077D01*
X011007Y005025D01*
X011004Y005022D01*
X010670Y005356D01*
X010670Y005400D01*
X010621Y005518D01*
X010531Y005608D01*
X010414Y005657D01*
X010286Y005657D01*
X010169Y005608D01*
X010079Y005518D01*
X010030Y005400D01*
X010030Y005273D01*
X010079Y005155D01*
X010169Y005065D01*
X010286Y005017D01*
X010331Y005017D01*
X010736Y004612D01*
X009688Y003564D01*
X008895Y003960D01*
X008320Y004726D01*
X008313Y004745D01*
X008303Y004750D01*
X008271Y004792D01*
X008172Y004806D01*
X008140Y004819D01*
X008140Y004987D01*
X008568Y005416D01*
X008569Y005415D01*
X008686Y005367D01*
X008814Y005367D01*
X008931Y005415D01*
X009021Y005505D01*
X009070Y005623D01*
X009070Y005750D01*
X009021Y005868D01*
X008931Y005958D01*
X008814Y006007D01*
X008686Y006007D01*
X008569Y005958D01*
X008537Y005927D01*
X008452Y005927D01*
X008364Y005890D01*
X007764Y005290D01*
X007697Y005223D01*
X007660Y005134D01*
X007660Y005025D01*
X007619Y005008D01*
X007529Y004918D01*
X007480Y004800D01*
X007480Y004673D01*
X007529Y004555D01*
X007619Y004465D01*
X007736Y004417D01*
X007864Y004417D01*
X007940Y004448D01*
X007997Y004424D01*
X008553Y003683D01*
X008570Y003631D01*
X008605Y003613D01*
X008629Y003582D01*
X008684Y003574D01*
X009510Y003161D01*
X009510Y003031D01*
X009429Y002951D01*
X009372Y002812D01*
X009372Y002661D01*
X009429Y002522D01*
X009536Y002416D01*
X009675Y002359D01*
X009694Y002359D01*
X009980Y002104D01*
X010019Y002065D01*
X010028Y002062D01*
X010035Y002055D01*
X010086Y002037D01*
X010136Y002017D01*
X010146Y002017D01*
X010155Y002013D01*
X010209Y002017D01*
X010492Y002017D01*
X010338Y001953D01*
X010184Y001798D01*
X010150Y001717D01*
X010116Y001798D01*
X009962Y001953D01*
X009759Y002037D01*
X009541Y002037D01*
X009338Y001953D01*
X009184Y001798D01*
X009150Y001717D01*
X009116Y001798D01*
X008962Y001953D01*
X008759Y002037D01*
X008541Y002037D01*
X008338Y001953D01*
X008184Y001798D01*
X008150Y001717D01*
X008116Y001798D01*
X007962Y001953D01*
X007759Y002037D01*
X007541Y002037D01*
X007338Y001953D01*
X007184Y001798D01*
X007150Y001717D01*
X007116Y001798D01*
X006962Y001953D01*
X006759Y002037D01*
X006541Y002037D01*
X006338Y001953D01*
X006184Y001798D01*
X006100Y001596D01*
X006100Y001377D01*
X006184Y001175D01*
X006338Y001020D01*
X006468Y000967D01*
X000650Y000967D01*
X000650Y001104D02*
X006255Y001104D01*
X006148Y001262D02*
X000650Y001262D01*
X000650Y001421D02*
X006100Y001421D01*
X006100Y001579D02*
X000650Y001579D01*
X000650Y001738D02*
X006159Y001738D01*
X006282Y001896D02*
X000650Y001896D01*
X000650Y002055D02*
X010037Y002055D01*
X010018Y001896D02*
X010282Y001896D01*
X010159Y001738D02*
X010141Y001738D01*
X009857Y002213D02*
X000650Y002213D01*
X000650Y002372D02*
X009643Y002372D01*
X009426Y002530D02*
X000650Y002530D01*
X000650Y002689D02*
X009372Y002689D01*
X009387Y002847D02*
X000650Y002847D01*
X000650Y003006D02*
X009484Y003006D01*
X009503Y003164D02*
X000650Y003164D01*
X000650Y003323D02*
X009186Y003323D01*
X008869Y003481D02*
X000650Y003481D01*
X000650Y003640D02*
X008567Y003640D01*
X008466Y003798D02*
X000650Y003798D01*
X000650Y003957D02*
X008347Y003957D01*
X008229Y004115D02*
X000650Y004115D01*
X000650Y004274D02*
X008110Y004274D01*
X007977Y004432D02*
X007901Y004432D01*
X007699Y004432D02*
X000650Y004432D01*
X000650Y004591D02*
X007514Y004591D01*
X007480Y004749D02*
X000650Y004749D01*
X000650Y004908D02*
X007524Y004908D01*
X007660Y005066D02*
X000650Y005066D01*
X000650Y005225D02*
X007699Y005225D01*
X007764Y005290D02*
X007764Y005290D01*
X007857Y005383D02*
X000650Y005383D01*
X000650Y005542D02*
X008016Y005542D01*
X008174Y005700D02*
X000650Y005700D01*
X000650Y005859D02*
X008333Y005859D01*
X008500Y005687D02*
X007900Y005087D01*
X007900Y004837D01*
X007800Y004737D01*
X008140Y004908D02*
X010440Y004908D01*
X010598Y004749D02*
X008304Y004749D01*
X008422Y004591D02*
X010715Y004591D01*
X010556Y004432D02*
X008541Y004432D01*
X008660Y004274D02*
X010398Y004274D01*
X010239Y004115D02*
X008779Y004115D01*
X008902Y003957D02*
X010081Y003957D01*
X009922Y003798D02*
X009219Y003798D01*
X009536Y003640D02*
X009764Y003640D01*
X010125Y003323D02*
X018650Y003323D01*
X018650Y003481D02*
X010284Y003481D01*
X010442Y003640D02*
X018650Y003640D01*
X018650Y003798D02*
X010601Y003798D01*
X010759Y003957D02*
X018650Y003957D01*
X018650Y004115D02*
X010918Y004115D01*
X011076Y004274D02*
X018650Y004274D01*
X018650Y004432D02*
X011353Y004432D01*
X011508Y004591D02*
X018650Y004591D01*
X018650Y004749D02*
X011540Y004749D01*
X011497Y004908D02*
X018650Y004908D01*
X018650Y005066D02*
X011293Y005066D01*
X011107Y005066D02*
X010960Y005066D01*
X010801Y005225D02*
X018650Y005225D01*
X018650Y005383D02*
X010670Y005383D01*
X010598Y005542D02*
X018650Y005542D01*
X018650Y005700D02*
X009070Y005700D01*
X009036Y005542D02*
X010102Y005542D01*
X010030Y005383D02*
X008854Y005383D01*
X008646Y005383D02*
X008536Y005383D01*
X008377Y005225D02*
X010050Y005225D01*
X010168Y005066D02*
X008219Y005066D01*
X008500Y005687D02*
X008750Y005687D01*
X009025Y005859D02*
X018650Y005859D01*
X018650Y006017D02*
X000650Y006017D01*
X000650Y006176D02*
X018650Y006176D01*
X018650Y006334D02*
X000650Y006334D01*
X000650Y006493D02*
X018650Y006493D01*
X018650Y006651D02*
X000650Y006651D01*
X000650Y006810D02*
X018650Y006810D01*
X018650Y006968D02*
X000650Y006968D01*
X000650Y007127D02*
X018650Y007127D01*
X018650Y007285D02*
X000650Y007285D01*
X007018Y001896D02*
X007282Y001896D01*
X007159Y001738D02*
X007141Y001738D01*
X008018Y001896D02*
X008282Y001896D01*
X008159Y001738D02*
X008141Y001738D01*
X009018Y001896D02*
X009282Y001896D01*
X009159Y001738D02*
X009141Y001738D01*
X010286Y002689D02*
X012323Y002689D01*
X012605Y002847D02*
X010113Y002847D01*
X010016Y003006D02*
X012887Y003006D01*
X013373Y003164D02*
X009990Y003164D01*
X009750Y003287D02*
X009750Y002737D01*
X009750Y003287D02*
X011200Y004737D01*
X010950Y004737D01*
X010350Y005337D01*
X013527Y003164D02*
X018650Y003164D01*
X018650Y003006D02*
X013766Y003006D01*
X013828Y002847D02*
X018650Y002847D01*
X018650Y002689D02*
X013819Y002689D01*
X013728Y002530D02*
X018650Y002530D01*
X018650Y002372D02*
X013065Y002372D01*
X012783Y002213D02*
X018650Y002213D01*
X018650Y002055D02*
X012746Y002055D01*
X012990Y001896D02*
X013104Y001896D01*
X013630Y001896D02*
X013670Y001896D01*
X013670Y002037D02*
X013670Y001507D01*
X014200Y001507D01*
X014200Y001880D01*
X014188Y001926D01*
X014164Y001967D01*
X014131Y002001D01*
X014089Y002024D01*
X014044Y002037D01*
X013670Y002037D01*
X013670Y001738D02*
X013630Y001738D01*
X013630Y001579D02*
X013670Y001579D01*
X014200Y001579D02*
X018650Y001579D01*
X018650Y001421D02*
X014200Y001421D01*
X014200Y001262D02*
X018650Y001262D01*
X018650Y001104D02*
X014200Y001104D01*
X014200Y001738D02*
X018650Y001738D01*
X018650Y001896D02*
X014196Y001896D01*
D14*
X012050Y002937D03*
X012250Y003387D03*
X013300Y003437D03*
X013900Y004437D03*
X013900Y005187D03*
X012750Y006087D03*
X011950Y006287D03*
X011450Y005937D03*
X010500Y005937D03*
X010500Y006387D03*
X010500Y006837D03*
X010500Y007287D03*
X010950Y007287D03*
X011400Y007287D03*
X011900Y007287D03*
X012400Y007287D03*
X012900Y007287D03*
X013400Y007287D03*
X013900Y007287D03*
X014400Y007287D03*
X014900Y007287D03*
X015400Y007287D03*
X015900Y007287D03*
X016400Y007287D03*
X016900Y007287D03*
X017400Y007287D03*
X017900Y007287D03*
X018400Y007287D03*
X010500Y003537D03*
X009700Y002237D03*
X007350Y003637D03*
X007800Y004737D03*
X007200Y005337D03*
X007500Y005937D03*
X008750Y005687D03*
X008800Y006337D03*
X008800Y006837D03*
X008800Y007287D03*
X008350Y007287D03*
X007900Y007287D03*
X007400Y007287D03*
X006950Y007287D03*
X006350Y007287D03*
X005900Y007287D03*
X005400Y007287D03*
X004900Y007287D03*
X004400Y007287D03*
X003900Y007287D03*
X003400Y007287D03*
X002900Y007287D03*
X002400Y007287D03*
X001900Y007287D03*
X001400Y007287D03*
X000900Y007287D03*
X010350Y005337D03*
D15*
X008750Y005137D03*
X008000Y004037D03*
D16*
X008150Y004587D02*
X007800Y004737D01*
D17*
X011200Y004737D03*
D18*
X009750Y002737D03*
X013450Y002787D03*
D19*
X009750Y003287D02*
X008750Y003787D01*
X008150Y004587D01*
D20*
X009750Y002737D02*
X010200Y002337D01*
X012350Y002337D01*
X013150Y002787D01*
X013450Y002787D01*
D21*
X012350Y002337D02*
X012650Y001487D01*
M02*
