G75*
G70*
%OFA0B0*%
%FSLAX24Y24*%
%IPPOS*%
%LPD*%
%AMOC8*
5,1,8,0,0,1.08239X$1,22.5*
%
%ADD10C,0.0063*%
%ADD11C,0.0152*%
%ADD12C,0.0205*%
%ADD13R,0.0867X0.0592*%
%ADD14R,0.0789X0.0710*%
%ADD15R,0.0820X0.0820*%
%ADD16C,0.0820*%
%ADD17R,0.0631X0.0552*%
D10*
X007132Y004271D02*
X007386Y004271D01*
X007132Y004271D02*
X007132Y004603D01*
X007386Y004603D01*
X007386Y004271D01*
X007386Y004333D02*
X007132Y004333D01*
X007132Y004395D02*
X007386Y004395D01*
X007386Y004457D02*
X007132Y004457D01*
X007132Y004519D02*
X007386Y004519D01*
X007386Y004581D02*
X007132Y004581D01*
X007714Y004271D02*
X007968Y004271D01*
X007714Y004271D02*
X007714Y004603D01*
X007968Y004603D01*
X007968Y004271D01*
X007968Y004333D02*
X007714Y004333D01*
X007714Y004395D02*
X007968Y004395D01*
X007968Y004457D02*
X007714Y004457D01*
X007714Y004519D02*
X007968Y004519D01*
X007968Y004581D02*
X007714Y004581D01*
X008416Y004568D02*
X008416Y004822D01*
X008416Y004568D02*
X008084Y004568D01*
X008084Y004822D01*
X008416Y004822D01*
X008416Y004630D02*
X008084Y004630D01*
X008084Y004692D02*
X008416Y004692D01*
X008416Y004754D02*
X008084Y004754D01*
X008084Y004816D02*
X008416Y004816D01*
X008416Y005151D02*
X008416Y005405D01*
X008416Y005151D02*
X008084Y005151D01*
X008084Y005405D01*
X008416Y005405D01*
X008416Y005213D02*
X008084Y005213D01*
X008084Y005275D02*
X008416Y005275D01*
X008416Y005337D02*
X008084Y005337D01*
X008084Y005399D02*
X008416Y005399D01*
X008414Y005721D02*
X008668Y005721D01*
X008414Y005721D02*
X008414Y006053D01*
X008668Y006053D01*
X008668Y005721D01*
X008668Y005783D02*
X008414Y005783D01*
X008414Y005845D02*
X008668Y005845D01*
X008668Y005907D02*
X008414Y005907D01*
X008414Y005969D02*
X008668Y005969D01*
X008668Y006031D02*
X008414Y006031D01*
X008086Y005721D02*
X007832Y005721D01*
X007832Y006053D01*
X008086Y006053D01*
X008086Y005721D01*
X008086Y005783D02*
X007832Y005783D01*
X007832Y005845D02*
X008086Y005845D01*
X008086Y005907D02*
X007832Y005907D01*
X007832Y005969D02*
X008086Y005969D01*
X008086Y006031D02*
X007832Y006031D01*
X010784Y005901D02*
X010784Y006155D01*
X011116Y006155D01*
X011116Y005901D01*
X010784Y005901D01*
X010784Y005963D02*
X011116Y005963D01*
X011116Y006025D02*
X010784Y006025D01*
X010784Y006087D02*
X011116Y006087D01*
X011116Y006149D02*
X010784Y006149D01*
X010784Y005572D02*
X010784Y005318D01*
X010784Y005572D02*
X011116Y005572D01*
X011116Y005318D01*
X010784Y005318D01*
X010784Y005380D02*
X011116Y005380D01*
X011116Y005442D02*
X010784Y005442D01*
X010784Y005504D02*
X011116Y005504D01*
X011116Y005566D02*
X010784Y005566D01*
X012682Y005703D02*
X012936Y005703D01*
X012936Y005371D01*
X012682Y005371D01*
X012682Y005703D01*
X012682Y005433D02*
X012936Y005433D01*
X012936Y005495D02*
X012682Y005495D01*
X012682Y005557D02*
X012936Y005557D01*
X012936Y005619D02*
X012682Y005619D01*
X012682Y005681D02*
X012936Y005681D01*
X013264Y005703D02*
X013518Y005703D01*
X013518Y005371D01*
X013264Y005371D01*
X013264Y005703D01*
X013264Y005433D02*
X013518Y005433D01*
X013518Y005495D02*
X013264Y005495D01*
X013264Y005557D02*
X013518Y005557D01*
X013518Y005619D02*
X013264Y005619D01*
X013264Y005681D02*
X013518Y005681D01*
X013518Y004903D02*
X013264Y004903D01*
X013518Y004903D02*
X013518Y004571D01*
X013264Y004571D01*
X013264Y004903D01*
X013264Y004633D02*
X013518Y004633D01*
X013518Y004695D02*
X013264Y004695D01*
X013264Y004757D02*
X013518Y004757D01*
X013518Y004819D02*
X013264Y004819D01*
X013264Y004881D02*
X013518Y004881D01*
X012936Y004903D02*
X012682Y004903D01*
X012936Y004903D02*
X012936Y004571D01*
X012682Y004571D01*
X012682Y004903D01*
X012682Y004633D02*
X012936Y004633D01*
X012936Y004695D02*
X012682Y004695D01*
X012682Y004757D02*
X012936Y004757D01*
X012936Y004819D02*
X012682Y004819D01*
X012682Y004881D02*
X012936Y004881D01*
X012986Y004203D02*
X012732Y004203D01*
X012986Y004203D02*
X012986Y003871D01*
X012732Y003871D01*
X012732Y004203D01*
X012732Y003933D02*
X012986Y003933D01*
X012986Y003995D02*
X012732Y003995D01*
X012732Y004057D02*
X012986Y004057D01*
X012986Y004119D02*
X012732Y004119D01*
X012732Y004181D02*
X012986Y004181D01*
X013314Y004203D02*
X013568Y004203D01*
X013568Y003871D01*
X013314Y003871D01*
X013314Y004203D01*
X013314Y003933D02*
X013568Y003933D01*
X013568Y003995D02*
X013314Y003995D01*
X013314Y004057D02*
X013568Y004057D01*
X013568Y004119D02*
X013314Y004119D01*
X013314Y004181D02*
X013568Y004181D01*
X015384Y004843D02*
X015384Y005097D01*
X015716Y005097D01*
X015716Y004843D01*
X015384Y004843D01*
X015384Y004905D02*
X015716Y004905D01*
X015716Y004967D02*
X015384Y004967D01*
X015384Y005029D02*
X015716Y005029D01*
X015716Y005091D02*
X015384Y005091D01*
X015384Y005426D02*
X015384Y005680D01*
X015716Y005680D01*
X015716Y005426D01*
X015384Y005426D01*
X015384Y005488D02*
X015716Y005488D01*
X015716Y005550D02*
X015384Y005550D01*
X015384Y005612D02*
X015716Y005612D01*
X015716Y005674D02*
X015384Y005674D01*
X010818Y003353D02*
X010564Y003353D01*
X010818Y003353D02*
X010818Y003021D01*
X010564Y003021D01*
X010564Y003353D01*
X010564Y003083D02*
X010818Y003083D01*
X010818Y003145D02*
X010564Y003145D01*
X010564Y003207D02*
X010818Y003207D01*
X010818Y003269D02*
X010564Y003269D01*
X010564Y003331D02*
X010818Y003331D01*
X010236Y003353D02*
X009982Y003353D01*
X010236Y003353D02*
X010236Y003021D01*
X009982Y003021D01*
X009982Y003353D01*
X009982Y003083D02*
X010236Y003083D01*
X010236Y003145D02*
X009982Y003145D01*
X009982Y003207D02*
X010236Y003207D01*
X010236Y003269D02*
X009982Y003269D01*
X009982Y003331D02*
X010236Y003331D01*
X010286Y002853D02*
X010032Y002853D01*
X010286Y002853D02*
X010286Y002521D01*
X010032Y002521D01*
X010032Y002853D01*
X010032Y002583D02*
X010286Y002583D01*
X010286Y002645D02*
X010032Y002645D01*
X010032Y002707D02*
X010286Y002707D01*
X010286Y002769D02*
X010032Y002769D01*
X010032Y002831D02*
X010286Y002831D01*
X010614Y002853D02*
X010868Y002853D01*
X010868Y002521D01*
X010614Y002521D01*
X010614Y002853D01*
X010614Y002583D02*
X010868Y002583D01*
X010868Y002645D02*
X010614Y002645D01*
X010614Y002707D02*
X010868Y002707D01*
X010868Y002769D02*
X010614Y002769D01*
X010614Y002831D02*
X010868Y002831D01*
D11*
X009963Y003573D02*
X009963Y003799D01*
X009963Y003573D02*
X009925Y003573D01*
X009925Y003799D01*
X009963Y003799D01*
X009963Y003724D02*
X009925Y003724D01*
X009766Y003799D02*
X009766Y003573D01*
X009728Y003573D01*
X009728Y003799D01*
X009766Y003799D01*
X009766Y003724D02*
X009728Y003724D01*
X009569Y003799D02*
X009569Y003573D01*
X009531Y003573D01*
X009531Y003799D01*
X009569Y003799D01*
X009569Y003724D02*
X009531Y003724D01*
X009372Y003799D02*
X009372Y003573D01*
X009334Y003573D01*
X009334Y003799D01*
X009372Y003799D01*
X009372Y003724D02*
X009334Y003724D01*
X009175Y003799D02*
X009175Y003573D01*
X009137Y003573D01*
X009137Y003799D01*
X009175Y003799D01*
X009175Y003724D02*
X009137Y003724D01*
X008962Y004012D02*
X008736Y004012D01*
X008962Y004012D02*
X008962Y003974D01*
X008736Y003974D01*
X008736Y004012D01*
X008736Y004209D02*
X008962Y004209D01*
X008962Y004171D01*
X008736Y004171D01*
X008736Y004209D01*
X008736Y004406D02*
X008962Y004406D01*
X008962Y004368D01*
X008736Y004368D01*
X008736Y004406D01*
X008736Y004603D02*
X008962Y004603D01*
X008962Y004565D01*
X008736Y004565D01*
X008736Y004603D01*
X008736Y004799D02*
X008962Y004799D01*
X008962Y004761D01*
X008736Y004761D01*
X008736Y004799D01*
X009175Y004974D02*
X009175Y005200D01*
X009175Y004974D02*
X009137Y004974D01*
X009137Y005200D01*
X009175Y005200D01*
X009175Y005125D02*
X009137Y005125D01*
X009372Y005200D02*
X009372Y004974D01*
X009334Y004974D01*
X009334Y005200D01*
X009372Y005200D01*
X009372Y005125D02*
X009334Y005125D01*
X009569Y005200D02*
X009569Y004974D01*
X009531Y004974D01*
X009531Y005200D01*
X009569Y005200D01*
X009569Y005125D02*
X009531Y005125D01*
X009766Y005200D02*
X009766Y004974D01*
X009728Y004974D01*
X009728Y005200D01*
X009766Y005200D01*
X009766Y005125D02*
X009728Y005125D01*
X009963Y005200D02*
X009963Y004974D01*
X009925Y004974D01*
X009925Y005200D01*
X009963Y005200D01*
X009963Y005125D02*
X009925Y005125D01*
X010138Y004799D02*
X010364Y004799D01*
X010364Y004761D01*
X010138Y004761D01*
X010138Y004799D01*
X010138Y004603D02*
X010364Y004603D01*
X010364Y004565D01*
X010138Y004565D01*
X010138Y004603D01*
X010138Y004406D02*
X010364Y004406D01*
X010364Y004368D01*
X010138Y004368D01*
X010138Y004406D01*
X010138Y004209D02*
X010364Y004209D01*
X010364Y004171D01*
X010138Y004171D01*
X010138Y004209D01*
X010138Y004012D02*
X010364Y004012D01*
X010364Y003974D01*
X010138Y003974D01*
X010138Y004012D01*
D12*
X009960Y003977D02*
X009960Y004797D01*
X009960Y003977D02*
X009140Y003977D01*
X009140Y004797D01*
X009960Y004797D01*
X009960Y004181D02*
X009140Y004181D01*
X009140Y004385D02*
X009960Y004385D01*
X009960Y004589D02*
X009140Y004589D01*
X009140Y004793D02*
X009960Y004793D01*
D13*
X011950Y005365D03*
X011950Y003908D03*
D14*
X014400Y003538D03*
X014400Y002435D03*
D15*
X013650Y001487D03*
D16*
X006650Y001487D03*
X007650Y001487D03*
X008650Y001487D03*
X009650Y001487D03*
X010650Y001487D03*
X011650Y001487D03*
X012650Y001487D03*
D17*
X014650Y004696D03*
X014650Y005877D03*
M02*
