G75*
G70*
%OFA0B0*%
%FSLAX24Y24*%
%IPPOS*%
%LPD*%
%AMOC8*
5,1,8,0,0,1.08239X$1,22.5*
%
%ADD10C,0.0047*%
%ADD11C,0.0088*%
%ADD12C,0.0189*%
%ADD13R,0.0787X0.0512*%
%ADD14R,0.0709X0.0630*%
%ADD15R,0.0551X0.0472*%
D10*
X007164Y004303D02*
X007354Y004303D01*
X007164Y004303D02*
X007164Y004571D01*
X007354Y004571D01*
X007354Y004303D01*
X007354Y004349D02*
X007164Y004349D01*
X007164Y004395D02*
X007354Y004395D01*
X007354Y004441D02*
X007164Y004441D01*
X007164Y004487D02*
X007354Y004487D01*
X007354Y004533D02*
X007164Y004533D01*
X007746Y004303D02*
X007936Y004303D01*
X007746Y004303D02*
X007746Y004571D01*
X007936Y004571D01*
X007936Y004303D01*
X007936Y004349D02*
X007746Y004349D01*
X007746Y004395D02*
X007936Y004395D01*
X007936Y004441D02*
X007746Y004441D01*
X007746Y004487D02*
X007936Y004487D01*
X007936Y004533D02*
X007746Y004533D01*
X008384Y004600D02*
X008384Y004790D01*
X008384Y004600D02*
X008116Y004600D01*
X008116Y004790D01*
X008384Y004790D01*
X008384Y004646D02*
X008116Y004646D01*
X008116Y004692D02*
X008384Y004692D01*
X008384Y004738D02*
X008116Y004738D01*
X008116Y004784D02*
X008384Y004784D01*
X008384Y005183D02*
X008384Y005373D01*
X008384Y005183D02*
X008116Y005183D01*
X008116Y005373D01*
X008384Y005373D01*
X008384Y005229D02*
X008116Y005229D01*
X008116Y005275D02*
X008384Y005275D01*
X008384Y005321D02*
X008116Y005321D01*
X008116Y005367D02*
X008384Y005367D01*
X008446Y005753D02*
X008636Y005753D01*
X008446Y005753D02*
X008446Y006021D01*
X008636Y006021D01*
X008636Y005753D01*
X008636Y005799D02*
X008446Y005799D01*
X008446Y005845D02*
X008636Y005845D01*
X008636Y005891D02*
X008446Y005891D01*
X008446Y005937D02*
X008636Y005937D01*
X008636Y005983D02*
X008446Y005983D01*
X008054Y005753D02*
X007864Y005753D01*
X007864Y006021D01*
X008054Y006021D01*
X008054Y005753D01*
X008054Y005799D02*
X007864Y005799D01*
X007864Y005845D02*
X008054Y005845D01*
X008054Y005891D02*
X007864Y005891D01*
X007864Y005937D02*
X008054Y005937D01*
X008054Y005983D02*
X007864Y005983D01*
X010816Y005933D02*
X010816Y006123D01*
X011084Y006123D01*
X011084Y005933D01*
X010816Y005933D01*
X010816Y005979D02*
X011084Y005979D01*
X011084Y006025D02*
X010816Y006025D01*
X010816Y006071D02*
X011084Y006071D01*
X011084Y006117D02*
X010816Y006117D01*
X010816Y005540D02*
X010816Y005350D01*
X010816Y005540D02*
X011084Y005540D01*
X011084Y005350D01*
X010816Y005350D01*
X010816Y005396D02*
X011084Y005396D01*
X011084Y005442D02*
X010816Y005442D01*
X010816Y005488D02*
X011084Y005488D01*
X011084Y005534D02*
X010816Y005534D01*
X012714Y005671D02*
X012904Y005671D01*
X012904Y005403D01*
X012714Y005403D01*
X012714Y005671D01*
X012714Y005449D02*
X012904Y005449D01*
X012904Y005495D02*
X012714Y005495D01*
X012714Y005541D02*
X012904Y005541D01*
X012904Y005587D02*
X012714Y005587D01*
X012714Y005633D02*
X012904Y005633D01*
X013296Y005671D02*
X013486Y005671D01*
X013486Y005403D01*
X013296Y005403D01*
X013296Y005671D01*
X013296Y005449D02*
X013486Y005449D01*
X013486Y005495D02*
X013296Y005495D01*
X013296Y005541D02*
X013486Y005541D01*
X013486Y005587D02*
X013296Y005587D01*
X013296Y005633D02*
X013486Y005633D01*
X013486Y004871D02*
X013296Y004871D01*
X013486Y004871D02*
X013486Y004603D01*
X013296Y004603D01*
X013296Y004871D01*
X013296Y004649D02*
X013486Y004649D01*
X013486Y004695D02*
X013296Y004695D01*
X013296Y004741D02*
X013486Y004741D01*
X013486Y004787D02*
X013296Y004787D01*
X013296Y004833D02*
X013486Y004833D01*
X012904Y004871D02*
X012714Y004871D01*
X012904Y004871D02*
X012904Y004603D01*
X012714Y004603D01*
X012714Y004871D01*
X012714Y004649D02*
X012904Y004649D01*
X012904Y004695D02*
X012714Y004695D01*
X012714Y004741D02*
X012904Y004741D01*
X012904Y004787D02*
X012714Y004787D01*
X012714Y004833D02*
X012904Y004833D01*
X012954Y004171D02*
X012764Y004171D01*
X012954Y004171D02*
X012954Y003903D01*
X012764Y003903D01*
X012764Y004171D01*
X012764Y003949D02*
X012954Y003949D01*
X012954Y003995D02*
X012764Y003995D01*
X012764Y004041D02*
X012954Y004041D01*
X012954Y004087D02*
X012764Y004087D01*
X012764Y004133D02*
X012954Y004133D01*
X013346Y004171D02*
X013536Y004171D01*
X013536Y003903D01*
X013346Y003903D01*
X013346Y004171D01*
X013346Y003949D02*
X013536Y003949D01*
X013536Y003995D02*
X013346Y003995D01*
X013346Y004041D02*
X013536Y004041D01*
X013536Y004087D02*
X013346Y004087D01*
X013346Y004133D02*
X013536Y004133D01*
X015416Y004875D02*
X015416Y005065D01*
X015684Y005065D01*
X015684Y004875D01*
X015416Y004875D01*
X015416Y004921D02*
X015684Y004921D01*
X015684Y004967D02*
X015416Y004967D01*
X015416Y005013D02*
X015684Y005013D01*
X015684Y005059D02*
X015416Y005059D01*
X015416Y005458D02*
X015416Y005648D01*
X015684Y005648D01*
X015684Y005458D01*
X015416Y005458D01*
X015416Y005504D02*
X015684Y005504D01*
X015684Y005550D02*
X015416Y005550D01*
X015416Y005596D02*
X015684Y005596D01*
X015684Y005642D02*
X015416Y005642D01*
X010786Y003321D02*
X010596Y003321D01*
X010786Y003321D02*
X010786Y003053D01*
X010596Y003053D01*
X010596Y003321D01*
X010596Y003099D02*
X010786Y003099D01*
X010786Y003145D02*
X010596Y003145D01*
X010596Y003191D02*
X010786Y003191D01*
X010786Y003237D02*
X010596Y003237D01*
X010596Y003283D02*
X010786Y003283D01*
X010204Y003321D02*
X010014Y003321D01*
X010204Y003321D02*
X010204Y003053D01*
X010014Y003053D01*
X010014Y003321D01*
X010014Y003099D02*
X010204Y003099D01*
X010204Y003145D02*
X010014Y003145D01*
X010014Y003191D02*
X010204Y003191D01*
X010204Y003237D02*
X010014Y003237D01*
X010014Y003283D02*
X010204Y003283D01*
X010254Y002821D02*
X010064Y002821D01*
X010254Y002821D02*
X010254Y002553D01*
X010064Y002553D01*
X010064Y002821D01*
X010064Y002599D02*
X010254Y002599D01*
X010254Y002645D02*
X010064Y002645D01*
X010064Y002691D02*
X010254Y002691D01*
X010254Y002737D02*
X010064Y002737D01*
X010064Y002783D02*
X010254Y002783D01*
X010646Y002821D02*
X010836Y002821D01*
X010836Y002553D01*
X010646Y002553D01*
X010646Y002821D01*
X010646Y002599D02*
X010836Y002599D01*
X010836Y002645D02*
X010646Y002645D01*
X010646Y002691D02*
X010836Y002691D01*
X010836Y002737D02*
X010646Y002737D01*
X010646Y002783D02*
X010836Y002783D01*
D11*
X009955Y003581D02*
X009955Y003791D01*
X009955Y003581D02*
X009933Y003581D01*
X009933Y003791D01*
X009955Y003791D01*
X009955Y003668D02*
X009933Y003668D01*
X009933Y003755D02*
X009955Y003755D01*
X009758Y003791D02*
X009758Y003581D01*
X009736Y003581D01*
X009736Y003791D01*
X009758Y003791D01*
X009758Y003668D02*
X009736Y003668D01*
X009736Y003755D02*
X009758Y003755D01*
X009561Y003791D02*
X009561Y003581D01*
X009539Y003581D01*
X009539Y003791D01*
X009561Y003791D01*
X009561Y003668D02*
X009539Y003668D01*
X009539Y003755D02*
X009561Y003755D01*
X009364Y003791D02*
X009364Y003581D01*
X009342Y003581D01*
X009342Y003791D01*
X009364Y003791D01*
X009364Y003668D02*
X009342Y003668D01*
X009342Y003755D02*
X009364Y003755D01*
X009167Y003791D02*
X009167Y003581D01*
X009145Y003581D01*
X009145Y003791D01*
X009167Y003791D01*
X009167Y003668D02*
X009145Y003668D01*
X009145Y003755D02*
X009167Y003755D01*
X008954Y004004D02*
X008744Y004004D01*
X008954Y004004D02*
X008954Y003982D01*
X008744Y003982D01*
X008744Y004004D01*
X008744Y004201D02*
X008954Y004201D01*
X008954Y004179D01*
X008744Y004179D01*
X008744Y004201D01*
X008744Y004398D02*
X008954Y004398D01*
X008954Y004376D01*
X008744Y004376D01*
X008744Y004398D01*
X008744Y004595D02*
X008954Y004595D01*
X008954Y004573D01*
X008744Y004573D01*
X008744Y004595D01*
X008744Y004791D02*
X008954Y004791D01*
X008954Y004769D01*
X008744Y004769D01*
X008744Y004791D01*
X009167Y004982D02*
X009167Y005192D01*
X009167Y004982D02*
X009145Y004982D01*
X009145Y005192D01*
X009167Y005192D01*
X009167Y005069D02*
X009145Y005069D01*
X009145Y005156D02*
X009167Y005156D01*
X009364Y005192D02*
X009364Y004982D01*
X009342Y004982D01*
X009342Y005192D01*
X009364Y005192D01*
X009364Y005069D02*
X009342Y005069D01*
X009342Y005156D02*
X009364Y005156D01*
X009561Y005192D02*
X009561Y004982D01*
X009539Y004982D01*
X009539Y005192D01*
X009561Y005192D01*
X009561Y005069D02*
X009539Y005069D01*
X009539Y005156D02*
X009561Y005156D01*
X009758Y005192D02*
X009758Y004982D01*
X009736Y004982D01*
X009736Y005192D01*
X009758Y005192D01*
X009758Y005069D02*
X009736Y005069D01*
X009736Y005156D02*
X009758Y005156D01*
X009955Y005192D02*
X009955Y004982D01*
X009933Y004982D01*
X009933Y005192D01*
X009955Y005192D01*
X009955Y005069D02*
X009933Y005069D01*
X009933Y005156D02*
X009955Y005156D01*
X010146Y004791D02*
X010356Y004791D01*
X010356Y004769D01*
X010146Y004769D01*
X010146Y004791D01*
X010146Y004595D02*
X010356Y004595D01*
X010356Y004573D01*
X010146Y004573D01*
X010146Y004595D01*
X010146Y004398D02*
X010356Y004398D01*
X010356Y004376D01*
X010146Y004376D01*
X010146Y004398D01*
X010146Y004201D02*
X010356Y004201D01*
X010356Y004179D01*
X010146Y004179D01*
X010146Y004201D01*
X010146Y004004D02*
X010356Y004004D01*
X010356Y003982D01*
X010146Y003982D01*
X010146Y004004D01*
D12*
X009928Y004009D02*
X009928Y004765D01*
X009928Y004009D02*
X009172Y004009D01*
X009172Y004765D01*
X009928Y004765D01*
X009928Y004197D02*
X009172Y004197D01*
X009172Y004385D02*
X009928Y004385D01*
X009928Y004573D02*
X009172Y004573D01*
X009172Y004761D02*
X009928Y004761D01*
D13*
X011950Y005365D03*
X011950Y003908D03*
D14*
X014400Y003538D03*
X014400Y002435D03*
D15*
X014650Y004696D03*
X014650Y005877D03*
M02*
