%
M48
M72
T01C0.0100
T02C0.0120
T03C0.0160
T04C0.0236
T05C0.0400
%
T01
X8000Y4037
X9300Y4137
X9550Y4387
X9300Y4637
X9800Y4637
X9800Y4137
X8750Y5137
T02
X8750Y5687
X8800Y6337
X8800Y6837
X8800Y7287
X8350Y7287
X7900Y7287
X7400Y7287
X6950Y7287
X6350Y7287
X5900Y7287
X5400Y7287
X4900Y7287
X4400Y7287
X3900Y7287
X3400Y7287
X2900Y7287
X2400Y7287
X1900Y7287
X1400Y7287
X900Y7287
X7200Y5337
X7500Y5937
X7800Y4737
X7350Y3637
X9700Y2237
X10500Y3537
X12050Y2937
X12250Y3387
X13300Y3437
X13900Y4437
X13900Y5187
X12750Y6087
X11950Y6287
X11450Y5937
X10500Y5937
X10500Y6387
X10500Y6837
X10500Y7287
X10950Y7287
X11400Y7287
X11900Y7287
X12400Y7287
X12900Y7287
X13400Y7287
X13900Y7287
X14400Y7287
X14900Y7287
X15400Y7287
X15900Y7287
X16400Y7287
X16900Y7287
X17400Y7287
X17900Y7287
X18400Y7287
X10350Y5337
T03
X11200Y4737
T04
X9750Y2737
X13450Y2787
T05
X6650Y1487
X7650Y1487
X8650Y1487
X9650Y1487
X10650Y1487
X11650Y1487
X12650Y1487
X13650Y1487
M30
